<?xml version="1.0" encoding="utf-8"?>
<!-- Generator: Adobe Illustrator 24.1.0, SVG Export Plug-In . SVG Version: 6.00 Build 0)  -->
<svg version="1.1" id="Capa_1" xmlns="http://www.w3.org/2000/svg" xmlns:xlink="http://www.w3.org/1999/xlink" x="0px" y="0px"
	 viewBox="0 0 222.26 69.26" style="enable-background:new 0 0 222.26 69.26;" xml:space="preserve">
<style type="text/css">
	.st0{fill:#B665A5;}
	.st1{fill:#9F4B97;}
	.st2{fill:#040606;}
	.st3{opacity:0.31;}
	.st4{fill:#FFFFFF;}
</style>
<g>
	<g id="Layer_1_1_">
		<g>
			<g>
				<g>
					<polygon class="st0" points="197.9,8.36 209.23,14.22 214.9,25.95 214.9,43.55 209.23,55.28 197.9,61.15 25.44,61.15 
						14.11,55.28 8.44,43.55 8.44,25.95 14.11,14.22 25.44,8.36 					"/>
					<g>
						<g>
							<g>
								<rect x="31.11" y="55.28" class="st1" width="166.79" height="5.87"/>
								<rect x="197.9" y="49.42" class="st1" width="5.67" height="5.87"/>
								<rect x="203.57" y="49.42" class="st1" width="5.67" height="5.87"/>
								<rect x="209.23" y="37.69" class="st1" width="5.67" height="5.87"/>
								<rect x="209.23" y="43.55" class="st1" width="5.67" height="5.87"/>
								<rect x="214.9" y="31.82" class="st1" width="5.67" height="5.87"/>
								<rect x="25.44" y="55.28" class="st1" width="5.67" height="5.87"/>
								<rect x="19.78" y="49.42" class="st1" width="5.67" height="5.87"/>
								<rect x="14.11" y="49.42" class="st1" width="5.67" height="5.87"/>
								<rect x="8.44" y="43.55" class="st1" width="5.67" height="5.87"/>
								<rect x="8.44" y="37.69" class="st1" width="5.67" height="5.87"/>
								<rect x="2.78" y="31.82" class="st1" width="5.67" height="5.87"/>
							</g>
							<g>
								<rect x="31.11" y="49.42" class="st1" width="166.79" height="5.87"/>
								<rect x="197.9" y="43.55" class="st1" width="5.67" height="5.87"/>
								<rect x="203.57" y="43.55" class="st1" width="5.67" height="5.87"/>
								<rect x="209.23" y="37.69" class="st1" width="5.67" height="5.87"/>
								<rect x="25.44" y="49.42" class="st1" width="5.67" height="5.87"/>
								<rect x="19.78" y="43.55" class="st1" width="5.67" height="5.87"/>
								<rect x="14.11" y="43.55" class="st1" width="5.67" height="5.87"/>
								<rect x="8.44" y="37.69" class="st1" width="5.67" height="5.87"/>
							</g>
						</g>
						<rect x="31.11" y="2.49" class="st2" width="166.79" height="5.87"/>
						<rect x="31.11" y="61.15" class="st2" width="166.79" height="5.87"/>
						<rect x="197.9" y="8.36" class="st2" width="5.67" height="5.87"/>
						<rect x="203.57" y="8.36" class="st2" width="5.67" height="5.87"/>
						<rect x="197.9" y="55.28" class="st2" width="5.67" height="5.87"/>
						<rect x="203.57" y="55.28" class="st2" width="5.67" height="5.87"/>
						<rect x="209.23" y="14.22" class="st2" width="5.67" height="5.87"/>
						<rect x="209.23" y="20.09" class="st2" width="5.67" height="5.87"/>
						<rect x="209.23" y="43.55" class="st2" width="5.67" height="5.87"/>
						<rect x="209.23" y="49.42" class="st2" width="5.67" height="5.87"/>
						<rect x="214.9" y="25.95" class="st2" width="5.67" height="5.87"/>
						<rect x="214.9" y="31.82" class="st2" width="5.67" height="5.87"/>
						<rect x="214.9" y="37.69" class="st2" width="5.67" height="5.87"/>
						<rect x="25.44" y="61.15" class="st2" width="5.67" height="5.87"/>
						<rect x="25.44" y="2.49" class="st2" width="5.67" height="5.87"/>
						<rect x="19.78" y="55.28" class="st2" width="5.67" height="5.87"/>
						<rect x="14.11" y="55.28" class="st2" width="5.67" height="5.87"/>
						<rect x="19.78" y="8.36" class="st2" width="5.67" height="5.87"/>
						<rect x="14.11" y="8.36" class="st2" width="5.67" height="5.87"/>
						<rect x="8.44" y="49.42" class="st2" width="5.67" height="5.87"/>
						<rect x="8.44" y="43.55" class="st2" width="5.67" height="5.87"/>
						<rect x="8.44" y="20.09" class="st2" width="5.67" height="5.87"/>
						<rect x="8.44" y="14.22" class="st2" width="5.67" height="5.87"/>
						<rect x="2.78" y="37.69" class="st2" width="5.67" height="5.87"/>
						<g class="st3">
							<g>
								<g>
									<g>
										<rect x="25.44" y="8.43" class="st4" width="166.79" height="5.87"/>
									</g>
									<g>
										<rect x="19.78" y="14.29" class="st4" width="5.67" height="5.87"/>
									</g>
									<g>
										<rect x="25.44" y="14.29" class="st4" width="5.67" height="5.87"/>
									</g>
									<g>
										<rect x="14.11" y="14.29" class="st4" width="5.67" height="5.87"/>
									</g>
									<g>
										<rect x="192.23" y="8.43" class="st4" width="5.67" height="5.87"/>
									</g>
									<g>
										<rect x="192.23" y="14.22" class="st4" width="5.67" height="5.87"/>
									</g>
									<g>
										<rect x="197.9" y="14.29" class="st4" width="5.67" height="5.87"/>
									</g>
									<g>
										<rect x="203.57" y="14.29" class="st4" width="5.67" height="5.87"/>
									</g>
								</g>
								<g>
									<g>
										<rect x="14.11" y="20.16" class="st4" width="5.67" height="5.87"/>
									</g>
									<g>
										<rect x="203.57" y="20.16" class="st4" width="5.67" height="5.87"/>
									</g>
								</g>
							</g>
						</g>
						<rect x="2.78" y="31.82" class="st2" width="5.67" height="5.87"/>
						<rect x="2.78" y="25.95" class="st2" width="5.67" height="5.87"/>
					</g>
					<rect x="31.11" y="14.29" class="st4" width="5.67" height="5.87"/>
					<rect x="25.48" y="20.12" class="st4" width="5.67" height="5.87"/>
					<rect x="19.78" y="20.12" class="st4" width="5.67" height="5.87"/>
				</g>
			</g>
		</g>
	</g>
</g>
</svg>
